<svg width="410" height="424" viewBox="0 0 410 424" fill="none" xmlns="http://www.w3.org/2000/svg">
<path d="M146.126 143.335C165.408 138.775 180.218 140.415 196.063 152.313C208.015 161.288 219.063 183.313 219.063 183.313C219.063 183.313 229.61 161.161 243.063 152.313C258.374 142.243 270.585 139.102 288.744 141.571C306.995 144.052 316.831 151.5 330.063 164.313C339.946 173.883 345.232 180.431 350.063 193.313C357.056 211.962 354.616 224.561 352.063 244.313C350.232 258.472 346.639 266.462 342.063 279.986C332.647 307.814 323.912 323.616 303.063 344.313C291.588 355.703 284.349 361.744 270.063 369.313C252.959 378.375 241.97 383.029 222.625 383.676C205.695 384.242 195.249 382.818 180.063 375.313C163.97 367.36 159.718 363.106 147.126 350.313C138.582 341.633 132.163 331.209 125.063 321.313C114.63 306.772 108.572 296.835 100.262 280.985C92.8276 266.807 90.6497 259.316 85.0626 244.313C81.1291 233.75 79.0626 213.313 79.0626 213.313C79.0626 213.313 79.6534 189.098 71.0626 175.313C65.365 166.17 63.8394 162.313 51.0627 156.313C38.2859 150.313 25.0626 157.313 25.0626 157.313C18.0181 158.39 11.7859 168.313 11.7859 168.313L0.285885 157.313C0.285885 157.313 13.6247 144.957 24.2859 141.335C37.885 136.715 60.0627 142.571 60.0627 142.571C60.0627 142.571 80.7545 155.184 87.0626 168.313C93.0423 180.758 92.0627 197.313 92.0627 197.313C92.0627 197.313 100.282 176.73 112.063 164.313C122.815 152.979 130.922 146.93 146.126 143.335Z" fill="#0900FF"/>
<path d="M218.625 209.2L219.059 210.154L219.527 209.217C240.288 167.695 265.538 155.675 287.198 159.894C308.934 164.127 327.345 184.752 334.311 209.13C337.775 221.255 336.626 237.31 331.833 254.615C327.044 271.909 318.63 290.398 307.626 307.364C285.596 341.33 253.298 369.029 219.08 369.029C201.999 369.029 185.208 361.007 169.954 348.237C154.703 335.469 141.025 317.985 130.183 299.145C119.341 280.305 111.347 260.131 107.448 241.997C103.544 223.84 103.765 207.821 109.236 197.222C120.304 175.777 138.498 158.605 158.415 156.829C178.261 155.058 200.134 168.566 218.625 209.2Z" fill="white" stroke="#0900FF"/>
<path d="M169.089 186.322L169.363 185.904L169.345 185.892L169.325 185.882L169.089 186.322ZM169.089 186.322C169.325 185.882 169.325 185.882 169.325 185.881L169.324 185.881L169.321 185.879L169.312 185.875L169.282 185.859C169.257 185.846 169.22 185.828 169.173 185.805C169.078 185.76 168.941 185.696 168.762 185.621C168.404 185.47 167.881 185.271 167.21 185.075C165.869 184.681 163.934 184.294 161.539 184.309C156.738 184.34 150.135 185.988 142.809 192.356C142.73 192.425 142.651 192.493 142.573 192.561C136.52 197.821 132.102 201.66 129.152 209.685C125.781 218.857 127.605 225.621 129.914 234.179C130.289 235.572 130.678 237.013 131.059 238.519C134.452 251.931 138.001 262.159 145.153 276.109C149.091 283.791 155.323 292.894 160.558 300.064C163.178 303.652 165.553 306.761 167.273 308.973C168.132 310.079 168.829 310.961 169.31 311.567C169.551 311.87 169.738 312.104 169.865 312.262L170.01 312.442L170.047 312.488L170.056 312.5L170.058 312.503L170.059 312.503C170.059 312.503 170.059 312.503 170.072 312.493L170.059 312.504L170.063 312.509L170.448 312.189C170.063 312.509 170.064 312.509 170.064 312.509L170.065 312.51L170.068 312.514L170.079 312.528L170.125 312.582C170.165 312.629 170.224 312.699 170.302 312.791C170.458 312.974 170.688 313.242 170.988 313.585C171.587 314.269 172.463 315.251 173.571 316.44C175.787 318.819 178.935 322.032 182.663 325.368C190.097 332.021 199.913 339.237 209.273 341.217C215.993 342.638 221.566 343.048 227.071 342.477C232.574 341.906 237.985 340.359 244.382 337.898C252.218 334.884 258.57 329.863 263.867 324.671C266.516 322.075 268.906 319.431 271.086 316.971C271.505 316.498 271.915 316.032 272.319 315.575C274.018 313.649 275.583 311.875 277.052 310.359C289.472 297.548 298.399 276.667 304.216 259.051C307.129 250.232 309.268 242.211 310.68 236.395C311.386 233.486 311.91 231.128 312.258 229.497C312.432 228.681 312.561 228.047 312.648 227.616C312.671 227.502 312.69 227.403 312.707 227.318C312.722 227.242 312.735 227.178 312.745 227.125L312.769 227L312.775 226.968L312.777 226.96L312.777 226.957C312.777 226.957 312.778 226.957 312.286 226.864M169.089 186.322C169.363 185.904 169.363 185.904 169.363 185.904L169.364 185.905L169.366 185.906L169.374 185.911L169.404 185.931C169.43 185.949 169.47 185.975 169.521 186.009C169.623 186.077 169.774 186.178 169.966 186.309C170.35 186.57 170.904 186.951 171.58 187.431C172.932 188.391 174.777 189.746 176.748 191.328C180.669 194.476 185.166 198.583 187.221 202.291C189.247 205.949 190.135 208.67 190.949 211.415C191.034 211.699 191.117 211.983 191.201 212.268C191.924 214.73 192.673 217.282 194.214 220.656C195.814 224.159 199.571 225.112 203.04 224.015C206.502 222.921 209.517 219.818 209.517 215.39C209.517 207.31 205.941 200.616 201.153 191.653C200.481 190.395 199.786 189.092 199.073 187.735C197.872 185.451 195.72 182.989 193.13 180.568C190.546 178.154 187.557 175.807 184.714 173.748C181.873 171.69 179.184 169.926 177.206 168.675C176.217 168.05 175.406 167.554 174.843 167.214C174.561 167.044 174.342 166.913 174.193 166.825C174.118 166.781 174.061 166.748 174.023 166.726L174.019 166.723C173.987 166.714 173.942 166.701 173.885 166.686C173.757 166.65 173.567 166.599 173.32 166.535C172.826 166.408 172.105 166.233 171.201 166.041C169.393 165.657 166.859 165.208 163.953 164.948C158.126 164.425 150.879 164.669 145.003 167.647C133.953 173.247 124.266 180.878 118.812 191.902C113.368 202.905 110.827 209.198 110.786 221.398C110.717 242.229 121.333 269.798 131.773 287.928C132.381 288.983 132.971 290.009 133.546 291.01C142.881 307.263 148.327 316.743 162.711 330.179C163.712 331.113 164.692 332.033 165.656 332.938C179.217 345.669 189.54 355.359 208.131 359.714C217.784 361.975 225.185 361.894 232.376 360.138C239.587 358.376 246.608 354.928 255.515 350.4C265.089 345.533 270.838 340.024 279.749 331.487C282.35 328.995 285.22 326.245 288.533 323.177C295.784 316.465 302.606 306.105 307.628 297.391C310.135 293.04 312.187 289.111 313.611 286.269C314.324 284.848 314.879 283.7 315.256 282.907C315.445 282.511 315.589 282.204 315.686 281.996C315.734 281.892 315.77 281.812 315.795 281.759L315.822 281.7L315.824 281.696L315.825 281.692L315.849 281.629C315.869 281.573 315.9 281.489 315.94 281.378C316.021 281.156 316.14 280.827 316.292 280.4C316.596 279.546 317.032 278.298 317.562 276.725C318.623 273.58 320.058 269.138 321.556 263.951C324.553 253.571 327.792 240.234 328.788 228.348C329.778 216.531 326.074 200.866 318.293 188.021C310.512 175.178 298.718 165.249 283.574 164.701C274.042 164.355 265.178 167.802 257.69 172.495C250.203 177.187 244.122 183.105 240.17 187.65C238.221 189.891 235.861 193.712 233.408 198.221C230.96 202.719 228.438 207.866 226.161 212.732C223.884 217.598 221.856 222.18 220.396 225.545C219.667 227.227 219.079 228.605 218.674 229.562C218.472 230.041 218.315 230.414 218.209 230.668C218.156 230.795 218.115 230.892 218.088 230.957L218.058 231.03L218.056 231.033L218.039 231.09C218.023 231.142 218 231.219 217.969 231.321C217.907 231.525 217.817 231.826 217.703 232.212C217.475 232.985 217.151 234.102 216.771 235.474C216.011 238.219 215.024 241.984 214.117 246.068C213.209 250.154 212.384 254.55 211.944 258.559C211.502 262.582 211.455 266.16 212.071 268.636C212.927 272.082 216.607 274.943 221.082 274.129C225.56 273.314 231.025 268.77 235.192 256.946C236.617 252.9 237.736 249.794 238.652 247.251C242.521 236.511 242.777 235.8 247.255 216.743C250.046 204.864 255.926 194.578 263.618 188.246C271.326 181.901 280.862 179.526 290.855 183.531C295.157 185.255 298.662 188.864 301.498 193.239C304.337 197.619 306.534 202.812 308.202 207.775C309.87 212.74 311.015 217.493 311.742 221.003C312.106 222.759 312.365 224.205 312.534 225.213C312.619 225.717 312.68 226.112 312.721 226.381C312.741 226.515 312.756 226.619 312.766 226.688L312.778 226.768L312.781 226.788L312.781 226.794L312.782 226.795C312.782 226.796 312.782 226.796 312.286 226.864M312.286 226.864L312.782 226.796L312.793 226.877L312.778 226.957L312.286 226.864Z" fill="#FDFD00" stroke="#FDFD00"/>
<circle cx="142.786" cy="364.677" r="37.5" fill="#0900FF"/>
<circle cx="142.786" cy="364.677" r="32.5" fill="white"/>
<path d="M142.786 332.177V364.177M142.786 364.177L173.695 354.634M142.786 364.177L161.889 390.97M142.786 364.177L123.683 390.97M142.786 364.177L111.877 354.634" stroke="#FDFD00"/>
<circle cx="302.786" cy="364.677" r="37.5" fill="#0900FF"/>
<circle cx="302.786" cy="364.677" r="32.5" fill="white"/>
<path d="M302.786 332.177V364.177M302.786 364.177L333.695 354.634M302.786 364.177L321.889 390.97M302.786 364.177L283.683 390.97M302.786 364.177L271.877 354.634" stroke="#FDFD00"/>
</svg>
