<svg width="310" height="424" viewBox="0 0 310 424" fill="none" xmlns="http://www.w3.org/2000/svg">
<path d="M110.412 143.335C124.981 138.775 136.172 140.415 148.144 152.313C157.175 161.288 165.522 183.313 165.522 183.313C165.522 183.313 173.492 161.161 183.657 152.313C195.226 142.243 204.452 139.102 218.174 141.571C231.964 144.052 239.395 151.5 249.393 164.313C256.861 173.883 260.855 180.431 264.505 193.313C269.789 211.962 267.946 224.561 266.016 244.313C264.633 258.472 261.918 266.462 258.461 279.986C251.346 307.814 244.746 323.616 228.992 344.313C220.322 355.703 214.853 361.744 204.058 369.313C191.134 378.375 182.831 383.029 168.214 383.676C155.422 384.242 147.529 382.818 136.054 375.313C123.895 367.36 120.682 363.106 111.167 350.313C104.712 341.633 99.8612 331.209 94.4965 321.313C86.6139 306.772 82.0364 296.835 75.7572 280.985C70.1399 266.807 68.4944 259.316 64.2728 244.313C61.3006 233.75 59.7392 213.313 59.7392 213.313C59.7392 213.313 60.1856 189.098 53.6945 175.313C49.3894 166.17 48.2367 162.313 38.5826 156.313C28.9286 150.313 18.9372 157.313 18.9372 157.313C13.6144 158.39 8.90532 168.313 8.90532 168.313L0.216013 157.313C0.216013 157.313 10.2948 144.957 18.3503 141.335C28.6257 136.715 45.383 142.571 45.383 142.571C45.383 142.571 61.0176 155.184 65.784 168.313C70.3022 180.758 69.562 197.313 69.562 197.313C69.562 197.313 75.7726 176.73 84.6738 164.313C92.7982 152.979 98.9241 146.93 110.412 143.335Z" fill="#0900FF"/>
<path d="M165.063 209.156L165.513 210.466L166.003 209.17C173.851 188.398 182.548 175.016 191.305 167.362C200.045 159.723 208.834 157.794 216.952 159.887C225.1 161.987 232.661 168.161 238.857 176.905C245.048 185.642 249.845 196.905 252.478 209.099C255.101 221.252 254.229 237.332 250.606 254.646C246.985 271.951 240.624 290.447 232.308 307.416C223.991 324.387 213.729 339.808 202.316 350.978C190.899 362.154 178.379 369.029 165.536 369.029C152.719 369.029 140.074 361.058 128.545 348.285C117.027 335.523 106.691 318.041 98.4963 299.195C90.3024 280.351 84.2591 260.169 81.311 242.022C78.3598 223.855 78.5231 207.803 82.668 197.175C86.8469 186.459 92.3757 176.798 98.7394 169.601C105.108 162.398 112.273 157.706 119.722 156.827C127.145 155.951 134.966 158.848 142.701 167.065C150.446 175.295 158.076 188.835 165.063 209.156Z" fill="white" stroke="#0900FF"/>
<path d="M127.762 186.322L128.09 185.945L128.072 185.929L128.052 185.915L127.762 186.322ZM127.762 186.322C128.052 185.915 128.052 185.915 128.052 185.914L128.051 185.914L128.048 185.912L128.041 185.907L128.017 185.89C127.996 185.877 127.968 185.858 127.931 185.834C127.857 185.787 127.75 185.722 127.612 185.645C127.336 185.491 126.934 185.289 126.418 185.088C125.386 184.688 123.897 184.293 122.056 184.309C118.352 184.34 113.321 186.027 107.776 192.405L107.606 192.601C103.021 197.873 99.6852 201.71 97.4595 209.724C94.9219 218.86 96.2923 225.586 98.0361 234.144C98.3201 235.538 98.614 236.981 98.9025 238.49C101.465 251.895 104.145 262.117 109.546 276.062C112.52 283.739 117.228 292.84 121.184 300.01C123.164 303.598 124.958 306.707 126.257 308.919C126.907 310.025 127.433 310.908 127.797 311.513C127.979 311.816 128.12 312.05 128.216 312.208L128.325 312.388L128.353 312.434L128.36 312.446L128.362 312.449L128.363 312.45C128.363 312.45 128.363 312.45 128.789 312.189M127.762 186.322C128.09 185.945 128.09 185.945 128.09 185.945L128.091 185.945L128.092 185.947L128.098 185.952L128.121 185.972L128.21 186.05C128.288 186.119 128.402 186.22 128.547 186.351C128.838 186.613 129.257 186.994 129.768 187.475C130.791 188.435 132.186 189.791 133.677 191.375C136.645 194.529 140.044 198.638 141.593 202.341C143.122 205.993 143.791 208.707 144.406 211.448C144.469 211.731 144.532 212.015 144.596 212.3C145.142 214.764 145.71 217.321 146.876 220.7C147.496 222.497 148.509 223.57 149.635 224.078C150.765 224.588 152.073 224.559 153.336 224.031C155.866 222.972 158.187 219.905 158.187 215.39C158.187 207.28 155.476 200.562 151.86 191.604C151.352 190.346 150.826 189.044 150.288 187.687C148.459 183.081 143.755 177.835 139.445 173.704C137.299 171.648 135.27 169.885 133.777 168.636C133.03 168.011 132.418 167.516 131.993 167.177C131.781 167.007 131.615 166.877 131.503 166.789C131.456 166.752 131.418 166.723 131.39 166.701C131.37 166.693 131.345 166.684 131.315 166.673C131.22 166.638 131.078 166.587 130.892 166.524C130.522 166.398 129.981 166.224 129.302 166.033C127.943 165.651 126.039 165.205 123.857 164.946C119.478 164.427 114.06 164.672 109.671 167.616C101.347 173.2 94.0294 180.819 89.9035 191.855C85.7893 202.86 83.8625 209.171 83.8316 221.397C83.7788 242.26 91.8092 269.848 99.6982 287.978C100.157 289.032 100.602 290.057 101.036 291.057C108.092 307.315 112.207 316.796 123.075 330.23C123.827 331.16 124.564 332.075 125.288 332.975C135.551 345.724 143.327 355.384 157.324 359.723C164.583 361.974 170.13 361.889 175.518 360.148C180.937 358.396 186.222 354.962 192.957 350.431C200.175 345.575 204.508 340.081 211.239 331.546C213.205 329.053 215.376 326.3 217.883 323.228C223.359 316.519 228.515 306.159 232.31 297.441C234.205 293.089 235.756 289.158 236.833 286.316C237.371 284.895 237.791 283.746 238.076 282.953C238.219 282.556 238.328 282.249 238.401 282.041C238.422 281.979 238.441 281.926 238.456 281.882C238.467 281.852 238.476 281.826 238.483 281.804L238.504 281.744L238.506 281.738L238.508 281.731L238.526 281.668C238.542 281.611 238.565 281.527 238.595 281.416C238.656 281.194 238.746 280.865 238.861 280.438C239.091 279.583 239.421 278.334 239.822 276.762C240.623 273.615 241.708 269.172 242.84 263.983C245.105 253.602 247.554 240.256 248.308 228.359C249.058 216.51 246.252 200.824 240.368 187.97C234.47 175.085 225.577 165.243 214.256 164.7C207.131 164.359 200.479 167.769 194.827 172.456C189.181 177.139 184.59 183.051 181.603 187.597C180.131 189.838 178.347 193.662 176.492 198.172C174.642 202.671 172.736 207.82 171.015 212.687C169.295 217.554 167.762 222.136 166.659 225.501C166.107 227.184 165.663 228.562 165.357 229.52C165.204 229.998 165.086 230.372 165.006 230.626L164.914 230.915L164.891 230.988L164.889 230.995L164.889 230.997L164.875 231.056C164.863 231.108 164.845 231.186 164.822 231.288C164.775 231.492 164.707 231.793 164.62 232.179C164.448 232.953 164.204 234.07 163.916 235.443C163.341 238.189 162.595 241.956 161.91 246.043C161.224 250.13 160.599 254.531 160.266 258.546C159.932 262.572 159.895 266.167 160.364 268.665C160.693 270.415 161.558 271.992 162.739 273.021C163.911 274.042 165.387 274.523 166.999 274.135C168.627 273.742 170.481 272.443 172.335 269.719C174.186 266.998 176.009 262.895 177.583 256.983C178.66 252.938 179.505 249.832 180.197 247.289C183.121 236.546 183.315 235.833 186.699 216.77C188.804 204.915 193.24 194.635 199.06 188.294C201.973 185.12 205.252 182.913 208.778 182.014C212.315 181.112 216.059 181.536 219.862 183.553C223.153 185.299 225.807 188.931 227.942 193.291C230.085 197.667 231.743 202.853 233.002 207.811C234.261 212.772 235.125 217.52 235.674 221.027C235.949 222.781 236.145 224.226 236.272 225.233C236.336 225.736 236.383 226.13 236.413 226.399C236.429 226.533 236.44 226.636 236.447 226.706L236.456 226.785L236.458 226.805L236.459 226.81L236.459 226.812C236.459 226.812 236.459 226.812 235.962 226.864M235.962 226.864C236.456 226.934 236.456 226.935 236.456 226.935L236.456 226.937L236.455 226.945L236.45 226.977L236.432 227.103C236.426 227.146 236.418 227.196 236.409 227.255C236.396 227.348 236.379 227.461 236.359 227.593C236.293 228.023 236.195 228.657 236.064 229.472C235.802 231.103 235.406 233.459 234.873 236.367C233.806 242.181 232.19 250.199 229.99 259.015C225.596 276.623 218.855 297.496 209.471 310.307C208.362 311.822 207.179 313.595 205.895 315.522C205.59 315.979 205.28 316.445 204.964 316.917C203.317 319.377 201.51 322.022 199.508 324.619C195.507 329.809 190.696 334.847 184.745 337.877C179.904 340.342 175.793 341.9 171.603 342.475C167.407 343.05 163.166 342.636 158.068 341.209C154.486 340.206 150.842 337.884 147.408 335.006C143.967 332.122 140.705 328.654 137.889 325.318C135.071 321.98 132.692 318.766 131.017 316.387C130.179 315.198 129.517 314.216 129.065 313.531C128.838 313.189 128.664 312.92 128.546 312.737C128.487 312.646 128.442 312.576 128.412 312.528L128.378 312.474L128.369 312.46L128.367 312.456L128.366 312.455C128.366 312.455 128.366 312.455 128.789 312.189M235.962 226.864L236.459 226.812L236.465 226.873L236.456 226.934L235.962 226.864ZM128.789 312.189L128.366 312.455L128.363 312.45L128.789 312.189Z" fill="#FDFD00" stroke="#FDFD00"/>
<ellipse cx="107.888" cy="364.677" rx="28.3348" ry="37.5" fill="#0900FF"/>
<ellipse cx="107.888" cy="364.677" rx="24.5568" ry="32.5" fill="white"/>
<path d="M107.888 332.177V364.177M107.888 364.177L131.243 354.634M107.888 364.177L122.322 390.97M107.888 364.177L93.454 390.97M107.888 364.177L84.5332 354.634" stroke="#FDFD00"/>
<ellipse cx="228.783" cy="364.677" rx="28.3348" ry="37.5" fill="#0900FF"/>
<ellipse cx="228.783" cy="364.677" rx="24.5568" ry="32.5" fill="white"/>
<path d="M228.783 332.177V364.177M228.783 364.177L252.138 354.634M228.783 364.177L243.217 390.97M228.783 364.177L214.349 390.97M228.783 364.177L205.428 354.634" stroke="#FDFD00"/>
</svg>
